<svg viewBox="0 0 569 34">
  <title>CSS Tricks, Smashing Magazine, Sitepoint, net Magazine, </title>
  <path d="M16.398 22.336a1.595 1.595 0 0 0-1.07.408c-1.462 1.246-2.899 1.942-5.019 1.942-3.843 0-6.623-3.218-6.623-7.206v-.032c0-3.963 2.81-7.158 6.623-7.158a7.234 7.234 0 0 1 4.805 1.811c.53.394 1.23.457 1.82.165.593-.296.973-.894.988-1.555a1.786 1.786 0 0 0-.688-1.42C15.484 7.927 13.45 7 10.337 7 4.277 7 0 11.727 0 17.495v.057C0 23.377 4.36 28 10.209 28c3.24 0 5.39-1.045 7.282-2.724.363-.323.571-.787.575-1.275a1.688 1.688 0 0 0-1.67-1.665h.002zm13.138-6.466c-3.87-.944-4.787-1.621-4.787-3.188v-.059c0-1.333 1.205-2.405 3.268-2.405 1.58 0 3.07.522 4.635 1.533.274.174.592.263.916.26.438.007.861-.164 1.174-.474.313-.311.49-.736.49-1.18a1.614 1.614 0 0 0-.773-1.419 10.966 10.966 0 0 0-6.384-1.88c-3.986 0-6.855 2.406-6.855 5.887v.057c0 3.74 2.41 5.015 6.68 6.06 3.729.868 4.538 1.65 4.538 3.098v.058c0 1.506-1.377 2.55-3.565 2.55a8.65 8.65 0 0 1-5.621-2.086 1.693 1.693 0 0 0-1.74-.143c-.564.281-.93.847-.955 1.476 0 .54.257 1.045.691 1.36a12.408 12.408 0 0 0 7.543 2.557c4.217 0 7.169-2.263 7.169-6.06v-.058c0-3.364-2.178-4.9-6.424-5.944zm17.78 0c-3.871-.927-4.786-1.625-4.786-3.188v-.059c0-1.333 1.204-2.405 3.267-2.405 1.576 0 3.07.522 4.634 1.533.275.174.593.263.917.26.438.007.861-.164 1.174-.474a1.67 1.67 0 0 0 .49-1.18 1.614 1.614 0 0 0-.774-1.419 10.966 10.966 0 0 0-6.383-1.88C41.869 7.058 39 9.464 39 12.94V13c0 3.739 2.41 5.014 6.68 6.06 3.728.867 4.531 1.652 4.531 3.101v.058c0 1.506-1.376 2.55-3.565 2.55a8.65 8.65 0 0 1-5.621-2.086 1.693 1.693 0 0 0-1.74-.143c-.564.281-.93.847-.955 1.476.002.541.262 1.047.699 1.36a12.407 12.407 0 0 0 7.542 2.55c4.217 0 7.168-2.263 7.168-6.06v-.058c0-3.357-2.178-4.892-6.423-5.937zm16.26 1.16h-5.392a1.717 1.717 0 0 0-1.707 1.725 1.716 1.716 0 0 0 1.708 1.726h5.39a1.718 1.718 0 0 0 1.707-1.726 1.716 1.716 0 0 0-1.708-1.725h.004-.001zm16.27-9.67H66.498a1.646 1.646 0 0 0-1.56 1.652c0 .883.687 1.611 1.56 1.652h4.877v15.355c0 .995.797 1.801 1.781 1.801a1.793 1.793 0 0 0 1.783-1.801V10.652h4.909a1.647 1.647 0 0 0 1.483-1.646c0-.854-.643-1.567-1.483-1.646zm13.852 0h-7.182a1.74 1.74 0 0 0-1.27.518c-.337.34-.521.804-.512 1.283V26.02a1.773 1.773 0 0 0 1.763 1.703 1.773 1.773 0 0 0 1.762-1.703v-5.451h4.445l4.877 6.29a2.008 2.008 0 0 0 1.72.93c.443.007.868-.162 1.186-.473.318-.31.5-.735.508-1.181a2.078 2.078 0 0 0-.574-1.362l-3.843-4.9c2.695-.84 4.559-2.813 4.559-6.06v-.057a6.161 6.161 0 0 0-1.66-4.377c-1.29-1.276-3.27-2.018-5.793-2.018h.014zm3.872 6.669c0 2.057-1.608 3.39-4.129 3.39h-5.18v-6.816h5.131c2.61 0 4.16 1.189 4.16 3.36l.018.066zm9.623-6.813a1.733 1.733 0 0 0-1.26.504 1.77 1.77 0 0 0-.52 1.265v17.034a1.773 1.773 0 0 0 1.761 1.703 1.773 1.773 0 0 0 1.763-1.703V8.97a1.767 1.767 0 0 0-.519-1.262 1.73 1.73 0 0 0-1.257-.506l.032.014zm22.34 15.131a1.595 1.595 0 0 0-1.07.408c-1.46 1.246-2.898 1.942-5.018 1.942-3.843 0-6.623-3.218-6.623-7.206v-.043c0-3.963 2.809-7.158 6.623-7.158a7.234 7.234 0 0 1 4.79 1.826 1.75 1.75 0 0 0 1.822.164c.591-.296.971-.894.986-1.555a1.786 1.786 0 0 0-.687-1.42C128.582 7.927 126.543 7 123.45 7c-6.082 0-10.338 4.727-10.338 10.495v.057c0 5.825 4.36 10.448 10.209 10.448 3.24 0 5.39-1.045 7.282-2.724.366-.326.576-.796.574-1.29a1.688 1.688 0 0 0-1.675-1.65l.032.011zm14.615-6.06L150.4 10.2a1.74 1.74 0 0 0 .63-1.333 1.641 1.641 0 0 0-.481-1.198 1.605 1.605 0 0 0-1.193-.466 1.846 1.846 0 0 0-1.462.666l-9.503 9.684V8.97a1.773 1.773 0 0 0-1.764-1.783 1.774 1.774 0 0 0-1.765 1.783V26.02c0 .985.79 1.783 1.765 1.783a1.774 1.774 0 0 0 1.764-1.783v-4.205l3.268-3.188 6.453 8.318c.323.518.884.834 1.49.84.468.016.922-.16 1.256-.488a1.75 1.75 0 0 0 .526-1.253 1.942 1.942 0 0 0-.489-1.274l-6.747-8.482zm18.464-.407c-3.892-.954-4.808-1.631-4.808-3.198v-.059c0-1.333 1.204-2.405 3.268-2.405 1.575 0 3.07.522 4.634 1.533.275.174.594.263.916.26.439.007.861-.164 1.175-.474a1.67 1.67 0 0 0 .49-1.18 1.614 1.614 0 0 0-.773-1.419 10.966 10.966 0 0 0-6.395-1.88c-3.975 0-6.844 2.406-6.844 5.887v.057c0 3.74 2.409 5.015 6.68 6.06 3.729.868 4.53 1.654 4.53 3.102v.057c0 1.507-1.376 2.551-3.565 2.551a8.65 8.65 0 0 1-5.62-2.086 1.693 1.693 0 0 0-1.74-.143c-.564.28-.93.847-.956 1.476.003.539.264 1.044.7 1.355a12.408 12.408 0 0 0 7.527 2.558c4.217 0 7.169-2.263 7.169-6.06v-.058c.015-3.364-2.178-4.9-6.41-5.944l.022.01z" fill-rule="nonzero" fill="currentColor"/>
  <g fill-rule="nonzero">
    <path d="M228.68 24.537L223.65 2.9a3.287 3.287 0 0 0-3.938-2.445l-3.662.84c.423.065.84.144 1.251.235l2.051-.47a3.286 3.286 0 0 1 3.936 2.445l1.854 7.992c-.748 1.516-2.256 4.067-4.528 5.606.543.438 1.01.9 1.397 1.384 1.207 1.532 1.81 3.384 1.814 5.556 0 2.114-.583 3.901-1.739 5.361l4.147-.953a3.273 3.273 0 0 0 2.05-1.448 3.242 3.242 0 0 0 .413-2.466h-.016zm-26.734 6.22l2.602-5.784c2.184 1.726 4.65 2.587 7.397 2.587 2.85 0 4.265-1.01 4.27-3.025 0-1.186-.43-2.156-1.285-2.91-.858-.76-2.525-1.65-5.005-2.68-1.474-.61-2.74-1.29-3.812-2.03-2.96.814-5.494 2.83-7.136 4.78l-2.78-11.97a3.246 3.246 0 0 1 .416-2.464 3.277 3.277 0 0 1 2.047-1.448l4.772-1.096c.187-.233.392-.456.612-.668l-6.077 1.394a3.282 3.282 0 0 0-2.046 1.45 3.251 3.251 0 0 0-.416 2.465l5.031 21.637a3.286 3.286 0 0 0 3.935 2.448l2.493-.573c-.064-.016-.132-.03-.194-.047-1.247-.33-2.852-1.015-4.824-2.065z" fill="currentColor"/>
    <path d="M201.835 9.59c0-1.935.533-3.558 1.597-4.873l-4.773 1.096c-2.232.506-2.89 2.05-2.461 3.912l2.78 11.978c1.642-1.95 4.174-3.963 7.135-4.78-2.845-1.973-4.277-4.413-4.277-7.333h-.001zm18.09-.725c-1.595-1.358-3.821-2.038-6.666-2.038-2.551 0-3.83 1.01-3.83 3.026 0 .794.425 1.51 1.26 2.152.838.634 2.627 1.5 5.373 2.584 1.876.73 3.384 1.566 4.543 2.51 2.274-1.54 3.785-4.09 4.532-5.604L223.283 3.5c-.384-1.647-1.709-2.955-3.933-2.445l-2.047.47c1.641.365 3.23.933 4.73 1.692l-2.108 5.648zM308.665 12.456c0-3.663 2.935-6.635 6.554-6.635 2.514 0 4.696 1.433 5.797 3.535l-2.409.792a4.07 4.07 0 0 0-3.388-1.824c-2.255 0-4.081 1.849-4.081 4.132 0 2.281 1.826 4.131 4.08 4.131 1.254 0 2.375-.57 3.123-1.47l-1.434.239-1.74-1.76 3.744-.62 3.749-.621-.615 3.791-.615 3.788-1.745-1.76.17-1.042a6.523 6.523 0 0 1-4.648 1.952c-3.62 0-6.558-2.973-6.558-6.635l.016.007zm-75.77 1.976c-.012.798.13 1.485.43 2.065a4.112 4.112 0 0 0 1.2 1.433c.528.38 1.124.656 1.755.814a7.82 7.82 0 0 0 2.061.273c.871 0 1.635-.102 2.292-.306.67-.208 1.224-.491 1.666-.854.44-.356.789-.809 1.02-1.323.227-.507.34-1.059.342-1.649 0-.726-.155-1.316-.465-1.778a3.632 3.632 0 0 0-1.075-1.122 4.433 4.433 0 0 0-1.27-.6 9.407 9.407 0 0 0-.985-.272l-1.953-.507a7.677 7.677 0 0 1-1.165-.4c-.275-.133-.46-.278-.555-.435-.095-.155-.14-.362-.14-.617 0-.277.06-.507.18-.689.12-.18.27-.331.45-.453.195-.12.4-.207.63-.254.225-.048.455-.073.68-.073.35 0 .664.032.95.093.28.051.548.155.79.307.23.146.409.344.539.602.145.253.23.576.254.961h2.725c0-.749-.14-1.38-.43-1.902a3.59 3.59 0 0 0-1.13-1.305 4.545 4.545 0 0 0-1.644-.723 7.612 7.612 0 0 0-1.914-.233c-.575 0-1.144.082-1.72.238-.574.157-1.084.4-1.539.728a3.902 3.902 0 0 0-1.11 1.234c-.274.486-.41 1.058-.41 1.725 0 .597.106 1.103.325 1.523.217.403.517.756.88 1.036.371.287.782.519 1.22.688.454.172.92.314 1.394.435.465.137.93.258 1.38.364.455.111.86.238 1.22.385.36.146.644.328.86.546.227.217.34.506.34.854 0 .329-.083.602-.25.82a1.792 1.792 0 0 1-.626.49 2.895 2.895 0 0 1-.808.254 6.624 6.624 0 0 1-.804.055c-.362 0-.723-.043-1.075-.127a3.057 3.057 0 0 1-.915-.42 2.112 2.112 0 0 1-.61-.743c-.155-.303-.234-.667-.234-1.103h-2.725l-.03-.035h-.001zm31.232-5.46l1.611 4.752h-3.313l1.703-4.751zm-6.211 9.597V5.782h-3.959l-2.867 8.903-2.991-8.901h-3.96v12.942h2.635l.035-9.078 3.135 9.083h2.169l3.17-9.169v9.17h5.404l1.004-2.879h4.783l.967 2.883h2.92l-4.783-12.942h-2.884l-4.778 12.79v-.015zm11.563-4.137c-.012.798.132 1.485.43 2.065a4.13 4.13 0 0 0 1.199 1.433c.515.374 1.1.645 1.757.814a7.81 7.81 0 0 0 2.06.273c.872 0 1.636-.102 2.294-.306.668-.208 1.223-.491 1.665-.854.44-.355.79-.809 1.022-1.323.228-.52.344-1.081.34-1.649 0-.726-.155-1.316-.465-1.778a3.7 3.7 0 0 0-1.076-1.122 4.484 4.484 0 0 0-1.272-.6 9.683 9.683 0 0 0-.985-.272l-1.953-.507a7.598 7.598 0 0 1-1.164-.4c-.275-.133-.46-.278-.555-.435-.096-.155-.144-.362-.144-.617 0-.277.06-.507.18-.689a1.63 1.63 0 0 1 .448-.453c.191-.12.4-.207.627-.254a3.28 3.28 0 0 1 .68-.073c.347 0 .664.032.95.093.299.059.561.161.79.307.225.146.405.344.535.602.144.253.228.576.253.961h2.723c0-.749-.145-1.38-.43-1.902a3.605 3.605 0 0 0-1.129-1.305 4.577 4.577 0 0 0-1.649-.723 7.653 7.653 0 0 0-1.916-.233 6.499 6.499 0 0 0-1.72.238 4.73 4.73 0 0 0-1.541.728 3.93 3.93 0 0 0-1.11 1.234c-.275.486-.41 1.058-.41 1.725 0 .597.11 1.103.324 1.523.219.402.518.755.88 1.036.371.287.782.519 1.22.688.454.172.92.314 1.4.435.464.137.924.258 1.379.364.454.111.86.238 1.22.385.36.146.644.328.859.546.225.217.34.506.34.854 0 .329-.085.602-.25.82a1.78 1.78 0 0 1-.625.49 2.878 2.878 0 0 1-.804.254 6.59 6.59 0 0 1-.805.055c-.362 0-.723-.043-1.075-.127a3.176 3.176 0 0 1-.915-.42 2.166 2.166 0 0 1-.61-.743c-.154-.303-.23-.667-.23-1.103h-2.724l-.018-.035zm11.245 4.293h2.811v-5.583h5.178v5.583h2.812V5.783h-2.812v4.968h-5.179V5.784h-2.81v12.942zm12.085 0h2.813V5.783h-2.813v12.942zm4.098 0h2.633l.035-8.664 5.322 8.665h2.813V5.783h-2.64l-.035 8.686-5.333-8.686h-2.8v12.942h.005z" fill="currentColor"/>
    <path d="M236.229 22.149l2.518 6.178 2.507-6.178h1.019v7.046h-.692v-6.089h-.02l-2.488 6.09h-.652l-2.499-6.09h-.02v6.09h-.693v-7.047h1.02zm12.548 0l2.854 7.046h-.745L250 27.004h-3.312l-.877 2.193h-.734l2.926-7.044h.774v-.004zm.989 4.283l-1.407-3.613-1.457 3.613h2.868-.004zm10.397 2.763l-.091-1.283h-.02a2.447 2.447 0 0 1-.454.647c-.181.18-.38.328-.597.444-.22.116-.455.2-.699.252a3.693 3.693 0 0 1-.768.078c-.571 0-1.073-.1-1.504-.3a3.109 3.109 0 0 1-1.076-.805 3.384 3.384 0 0 1-.642-1.165 4.484 4.484 0 0 1-.214-1.392c0-.486.074-.95.218-1.391.136-.428.356-.825.646-1.17a3.101 3.101 0 0 1 1.077-.81c.431-.2.932-.3 1.503-.3.382 0 .74.05 1.082.148.342.099.645.247.909.444.262.197.491.44.675.727.183.29.312.628.377 1.017h-.695a1.527 1.527 0 0 0-.208-.619 2.096 2.096 0 0 0-.477-.567 2.476 2.476 0 0 0-.72-.422 2.576 2.576 0 0 0-.938-.164c-.481 0-.898.089-1.24.267-.348.178-.63.413-.85.703-.217.29-.381.624-.49.99a4.128 4.128 0 0 0 0 2.263c.104.371.267.704.49.994.228.295.52.536.854.704.348.178.76.262 1.247.262a2.88 2.88 0 0 0 1.076-.192c.302-.121.575-.305.8-.54.217-.229.382-.506.49-.82.11-.318.16-.66.155-1.036h-2.477v-.562h3.087v3.581h-.501l-.025.017zm6.89-7.046l2.855 7.046h-.744l-.887-2.192h-3.313l-.876 2.192h-.735l2.924-7.046h.777zm.99 4.283l-1.407-3.613-1.457 3.613h2.863zm9.561-4.283v.591l-4.79 5.883h4.893v.572h-5.668v-.592l4.791-5.882h-4.465v-.572h5.24zm3.864 0v7.046h-.693V22.15h.693zm4.433 0l4.241 5.96h.02v-5.962h.694v7.047h-.775l-4.24-5.961h-.02v5.96h-.694v-7.045h.774zm13.59 0v.572h-4.334v2.546h4.058v.572h-4.057v2.784h4.387v.572h-5.078V22.15h5.025-.002z" fill="#999"/>
    <path d="M203.432 4.717l13.87-3.187a17.511 17.511 0 0 0-1.251-.235l-12.007 2.75c-.218.208-.422.43-.612.664v.007zM222 18.488a9.017 9.017 0 0 0-1.395-1.385c-1.95 1.32-4.461 1.895-7.535.425-2.428-1.158-4.806-1.197-6.958-.605 1.072.742 2.337 1.422 3.813 2.03 2.48 1.027 4.146 1.919 5.004 2.676.855.756 1.285 1.72 1.285 2.906-.007 2.014-1.42 3.02-4.27 3.02-2.746 0-5.214-.866-7.397-2.59l-2.602 5.79c1.971 1.05 3.577 1.735 4.824 2.067.062.017.13.031.194.047l15.106-3.467c1.156-1.46 1.74-3.247 1.74-5.362-.005-2.171-.608-4.023-1.815-5.554l.006.002z" fill="#FFF"/>
    <path d="M201.835 9.59c0 2.92 1.431 5.36 4.278 7.333 2.152-.592 4.53-.553 6.958.605 3.074 1.47 5.584.895 7.534-.425-1.159-.945-2.667-1.783-4.543-2.513-2.745-1.083-4.535-1.946-5.373-2.585-.834-.642-1.26-1.357-1.26-2.152 0-2.016 1.279-3.026 3.83-3.026 2.844 0 5.071.68 6.665 2.039l2.106-5.644a20.093 20.093 0 0 0-4.73-1.691L203.43 4.72c-1.066 1.314-1.599 2.94-1.599 4.874l.005-.005z" fill="#FFF"/>
  </g>
  <path d="M541.022 22.923l-1.524-.376-.017-.008c-.182-.06-.291-.188-.291-.4l-.002-.015V14.89c0-5.937-4.859-7.22-8.037-7.22-1.485 0-3.32.38-4.887 1.283l-.39-.944-5.874.63v2.288l2.604.442a.38.38 0 0 1 .249.327V16.1l.004-.006v6.05a.39.39 0 0 1-.29.402.411.411 0 0 0-.036.013l-1.44.363v2.71h8.324v-2.71l-1.392-.385a.388.388 0 0 1-.269-.393V14.78c0-3.08 2.794-3.08 3.384-3.08h.014c.506 0 1.428.092 2.149.61.584.417 1.036 1.108 1.036 2.251V22.1a.206.206 0 0 0-.006.039c0 .212-.108.34-.29.4l-.003.003-1.376.381v2.71h8.36v-2.71zm4.48-8.14c0-3.08 2.776-3.08 3.36-3.08.915 0 3.18.293 3.18 2.86v.23l-6.54-.01zm0 3.702H556.9v-3.593c0-5.938-4.86-7.222-8.038-7.222-3.288 0-8.293 1.614-8.293 6.856v4.582c0 5.242 5.115 6.892 8.401 6.892 3.983 0 6.17-1.236 7.777-2.189v-2.87h-4.451s-1.28 1.21-3.326 1.21c-.584 0-3.47-.22-3.47-3.3v-.366zm18.184 2.383V11.67h4.576V8.037h-4.576V4l-4.981.53v3.508h-1.666v3.63h1.666v9.272c0 4.802 4.427 4.802 5.94 4.802 2.03 0 4.355-1.1 4.355-1.1v-3.299h-2.62s-.443.55-1.587.55c-.74 0-1.107-.293-1.107-1.026v.001z" fill-rule="nonzero" fill="currentColor"/>
  <g fill-rule="nonzero" fill="currentColor">
    <path d="M386.013 21.668c.238.397.545.695.925.931a3.87 3.87 0 0 0 1.292.485c.488.1.984.15 1.481.148.391 0 .806-.024 1.233-.086.412-.052.815-.16 1.197-.323.356-.162.652-.397.89-.709.236-.298.354-.695.354-1.167 0-.66-.248-1.156-.734-1.492-.487-.349-1.103-.621-1.837-.82-.735-.211-1.53-.398-2.395-.572-.82-.16-1.621-.4-2.394-.721a4.78 4.78 0 0 1-1.837-1.293c-.486-.559-.735-1.33-.735-2.323 0-.784.166-1.442.51-2.001a4.294 4.294 0 0 1 1.327-1.354 6.125 6.125 0 0 1 1.826-.784 8.564 8.564 0 0 1 2.014-.248c.854 0 1.648.075 2.371.223a5.545 5.545 0 0 1 1.932.77c.557.373.995.871 1.339 1.492.332.634.521 1.405.58 2.35h-2.5c-.036-.498-.166-.92-.38-1.244a2.695 2.695 0 0 0-.816-.794 3.6 3.6 0 0 0-1.104-.424c-.4-.095-.81-.14-1.22-.137-.38 0-.747.026-1.138.088-.36.055-.711.16-1.043.31a2.09 2.09 0 0 0-.759.597c-.2.248-.296.572-.296.97 0 .435.155.807.462 1.093.297.286.688.522 1.162.709.462.198.996.36 1.576.484.593.125 1.186.26 1.767.397.628.15 1.244.311 1.837.51a5.837 5.837 0 0 1 1.587.795c.458.32.84.742 1.115 1.231.284.497.427 1.12.427 1.851 0 .945-.19 1.716-.569 2.325a4.573 4.573 0 0 1-1.506 1.503c-.644.385-1.35.65-2.085.783-.771.15-1.542.224-2.3.224a10.98 10.98 0 0 1-2.418-.26c-.759-.187-1.434-.474-2.027-.883a4.556 4.556 0 0 1-1.41-1.616c-.344-.671-.545-1.479-.58-2.436h2.488c.024.56.154 1.032.391 1.417zM398.944 9.7h2.49v15.422h-2.49V9.7zm12.872 0v2.236h-3.034v9.57c0 .298.024.534.07.72a.738.738 0 0 0 .285.423c.142.1.332.162.57.186.247.024.568.05.959.05h1.15v2.237h-1.92c-.64 0-1.198-.05-1.66-.137-.462-.087-.83-.249-1.113-.497-.285-.236-.499-.572-.629-1.007-.142-.434-.213-1.019-.213-1.74v-9.805h-2.584V9.7h2.584V5.064h2.5v4.635h3.035V9.7zm13.512 14.428c-1.138.882-2.572 1.317-4.291 1.317-1.209 0-2.264-.2-3.152-.597a6.217 6.217 0 0 1-2.252-1.665 7.129 7.129 0 0 1-1.364-2.573c-.308-.994-.474-2.075-.52-3.243 0-1.18.177-2.25.532-3.231.356-.97.841-1.815 1.482-2.535a6.812 6.812 0 0 1 2.263-1.666 6.825 6.825 0 0 1 2.868-.596c1.352 0 2.466.273 3.367.845a6.896 6.896 0 0 1 2.145 2.162 9.038 9.038 0 0 1 1.113 2.87c.202 1.033.286 2.014.25 2.946h-11.378c-.012.684.059 1.318.237 1.927a4.45 4.45 0 0 0 .854 1.615c.39.473.889.845 1.505 1.119.604.273 1.315.41 2.133.41 1.067 0 1.932-.236 2.608-.747.675-.484 1.125-1.242 1.338-2.26h2.466c-.332 1.726-1.067 3.032-2.204 3.902zm-.605-9.905a4.173 4.173 0 0 0-.913-1.38 4.45 4.45 0 0 0-1.351-.932 4.255 4.255 0 0 0-1.718-.336c-.64 0-1.233.112-1.743.336-.504.22-.96.542-1.339.945a4.476 4.476 0 0 0-.877 1.392 5.237 5.237 0 0 0-.391 1.677h8.735a5.566 5.566 0 0 0-.403-1.702zm8.214-4.524v2.088h.059a3.738 3.738 0 0 1 1.944-1.864c.877-.397 1.85-.584 2.903-.584 1.186 0 2.205.211 3.07.659a6.21 6.21 0 0 1 2.182 1.764c.58.746 1.007 1.616 1.303 2.585.296.982.438 2.013.438 3.107a10.938 10.938 0 0 1-.426 3.095c-.284.98-.711 1.826-1.292 2.56-.569.721-1.304 1.292-2.169 1.714-.877.41-1.885.622-3.046.622-.367 0-.782-.037-1.245-.112a6.822 6.822 0 0 1-1.363-.397 5.127 5.127 0 0 1-1.28-.734 3.856 3.856 0 0 1-1.02-1.143h-.058V31h-2.502V9.7h2.502zm8.984 5.468a6.01 6.01 0 0 0-.853-1.839 4.285 4.285 0 0 0-1.47-1.28c-.605-.31-1.304-.473-2.11-.473-.84 0-1.553.163-2.145.51-.569.326-1.059.776-1.434 1.318-.374.57-.647 1.2-.807 1.864a9.21 9.21 0 0 0-.248 2.124c0 .76.083 1.492.26 2.188.178.709.45 1.33.842 1.865.38.546.877.969 1.482 1.304.604.323 1.339.484 2.204.484.865 0 1.577-.16 2.158-.497a4.006 4.006 0 0 0 1.398-1.341c.355-.56.604-1.193.758-1.914a9.812 9.812 0 0 0 .237-2.213c0-.708-.094-1.416-.272-2.1zm5.5-.92a7.516 7.516 0 0 1 1.41-2.572 6.796 6.796 0 0 1 2.335-1.715c.913-.41 1.967-.62 3.164-.62 1.22 0 2.275.21 3.188.62.882.4 1.67.984 2.312 1.715.628.733 1.09 1.579 1.41 2.573.318 1.025.478 2.094.474 3.168 0 1.144-.166 2.188-.474 3.17-.32.969-.782 1.827-1.41 2.548-.628.732-1.4 1.292-2.312 1.702-.913.41-1.967.608-3.188.608-1.197 0-2.251-.198-3.164-.608-.925-.41-1.707-.97-2.336-1.702a7.537 7.537 0 0 1-1.41-2.548c-.308-.982-.462-2.026-.462-3.17 0-1.13.154-2.186.463-3.168zm2.547 5.668c.25.72.582 1.33 1.02 1.814a4.37 4.37 0 0 0 3.342 1.503 4.423 4.423 0 0 0 3.354-1.503c.427-.485.77-1.094 1.008-1.814.248-.733.367-1.554.367-2.498 0-.932-.119-1.765-.367-2.486a5.4 5.4 0 0 0-1.008-1.84 4.375 4.375 0 0 0-3.354-1.516c-.64 0-1.256.125-1.837.386a4.252 4.252 0 0 0-1.505 1.13c-.438.498-.77 1.12-1.02 1.84-.248.721-.367 1.554-.367 2.485 0 .945.119 1.766.368 2.499h-.001zM464.797 9.7h2.499v15.423h-2.5V9.7zm8.722 0v2.436h.06c1.042-1.864 2.69-2.796 4.942-2.796.996 0 1.825.136 2.49.41.674.286 1.208.671 1.623 1.168.414.497.7 1.094.865 1.777.166.684.248 1.442.248 2.275v10.153h-2.5V14.67c0-.944-.272-1.702-.818-2.262-.544-.56-1.304-.833-2.264-.833-.77 0-1.422.112-1.991.361-.534.22-1.01.565-1.386 1.006-.38.436-.652.957-.842 1.542-.19.584-.272 1.23-.272 1.926v8.712h-2.502V9.7h2.348-.001zM494 9.7v2.237h-3.023v9.57c0 .298.024.534.072.72a.746.746 0 0 0 .284.423c.13.1.32.162.569.186.249.024.569.05.948.05H494v2.237h-1.908c-.64 0-1.197-.05-1.66-.137-.462-.087-.83-.249-1.114-.497-.284-.236-.497-.572-.628-1.007-.142-.434-.213-1.019-.213-1.74v-9.805h-2.584V9.7h2.584V5.064h2.5v4.635H494zm-144.362 5.903l2.312 2.349 7.277 7.133 3.14-3.181c.29-.416.267-.978-.058-1.367L359.44 17.9h.01l-3.092-3.144a1.132 1.132 0 0 1 .035-1.491l8.31-8.426-3.77-3.84-11.284 11.421c-.865.882-.865 2.31-.012 3.182v-.001z"/>
    <path d="M374.048 18.5l-2.297-2.318-7.281-7.077-3.138 3.144a1.15 1.15 0 0 0 .06 1.369l2.865 2.614 3.078 3.119a1.118 1.118 0 0 1-.024 1.48L359 29.19l3.777 3.81 8.962-9.013 2.309-2.33a2.246 2.246 0 0 0 0-3.157M401.22 5.467a1.46 1.46 0 0 1-1.456 1.468 1.45 1.45 0 0 1-1.031-.43 1.47 1.47 0 0 1-.426-1.038c0-.8.651-1.467 1.456-1.467.806 0 1.456.666 1.456 1.467m65.781 0a1.46 1.46 0 0 1-1.456 1.468 1.45 1.45 0 0 1-1.03-.43 1.47 1.47 0 0 1-.426-1.038c0-.8.65-1.467 1.456-1.467.805 0 1.456.666 1.456 1.467"/>
  </g>
</svg>